<svg width="140" height="48" viewBox="0 0 140 48" fill="none" xmlns="http://www.w3.org/2000/svg">
<rect width="140" height="48"/>
<path fill-rule="evenodd" clip-rule="evenodd" d="M55.0574 10.6771C54.6209 11.1403 54.3168 11.5699 54.382 11.6319C54.4471 11.6936 55.311 12.2008 56.3017 12.7586L58.1032 13.7726L54.7082 13.776L51.3132 13.7791V15.4695V17.1599H52.3247H53.3366L53.1531 19.9069C53.0522 21.4178 52.7884 23.5204 52.5667 24.5795C52.345 25.6386 51.8433 27.2169 51.4514 28.0866L50.7392 29.668L51.7106 30.6555L52.682 31.643L53.3554 30.9998C53.7257 30.6462 54.3484 29.6325 54.7392 28.7475C55.13 27.8623 55.6726 25.971 55.9451 24.5449L56.4403 21.9514L57.5178 21.9503L58.5951 21.9495L58.3997 24.3983C58.2922 25.7453 58.0824 27.0785 57.9338 27.3611C57.785 27.6437 57.1235 28.0215 56.4636 28.201L55.2638 28.5272L55.8389 29.9573C56.1551 30.7439 56.5445 31.488 56.7044 31.6106C56.8641 31.7331 57.4718 31.7757 58.0555 31.705C58.6389 31.6342 59.3692 31.3438 59.6785 31.0595C59.9878 30.7752 60.4883 30.0495 60.7906 29.4471C61.1271 28.7771 61.4356 27.3541 61.5852 25.7845C61.7196 24.3724 61.833 22.1712 61.8371 20.893L61.8446 18.5686H59.2118C56.588 18.5686 56.5789 18.5661 56.5789 17.8643V17.1599H59.4889H62.3989V16.2657V15.3712L63.0657 16.0079C63.5812 16.5004 63.8489 16.5812 64.2466 16.3649C64.5293 16.211 64.9971 15.82 65.2856 15.4957C65.7762 14.9446 66.0977 14.906 70.2019 14.906H74.5932V13.3564V11.8069H70.9904C69.0088 11.8069 67.3875 11.7055 67.3875 11.5812C67.3875 11.4573 66.823 11.0769 66.1329 10.736C65.4431 10.3954 64.7671 10.1165 64.631 10.1165C64.4949 10.1165 64.1809 10.7185 63.9335 11.4547C63.6862 12.1909 63.2447 13.2367 62.9529 13.7791C62.6201 14.3972 62.4178 14.5812 62.4105 14.2721C62.4006 13.8464 62.1082 13.7791 60.266 13.7791H58.1331L59.0726 12.7935C59.985 11.8368 59.9966 11.7959 59.4734 11.391C59.1771 11.1617 58.2753 10.7177 57.4691 10.4044C56.6631 10.0911 55.9694 9.83472 55.9276 9.83472C55.8855 9.83472 55.4939 10.2137 55.0574 10.6771ZM88.7514 10.5723C88.4377 10.9777 88.2442 11.4139 88.3215 11.5409C88.3989 11.6683 89.158 12.1771 90.0082 12.6715L91.5544 13.5709L92.3928 12.7189C92.8952 12.2078 93.148 11.7303 93.0239 11.526C92.9099 11.3386 92.1775 10.8828 91.3956 10.5129C90.6141 10.1429 89.8278 9.83894 89.6485 9.83753C89.4689 9.83584 89.0654 10.1666 88.7514 10.5723ZM95.7155 11.8869L94.8045 13.9199L90.7524 13.8346C87.8825 13.774 86.6415 13.845 86.4999 14.078C86.373 14.2868 85.7646 13.7275 84.8312 12.5434C84.0233 11.5184 83.2845 10.6799 83.1894 10.6799C83.0941 10.6799 82.601 11.1155 82.0933 11.648L81.1707 12.6158L82.524 14.5206C83.2684 15.5684 83.9657 16.5576 84.0732 16.719C84.1929 16.8985 84.6286 16.6581 85.1951 16.1C85.7045 15.5982 86.2086 15.1877 86.3159 15.1877C86.4228 15.1877 86.5104 15.4326 86.5104 15.7315C86.5104 16.0811 86.7332 16.3077 87.134 16.3654C87.7063 16.4482 87.7506 16.5829 87.6747 18.0051C87.6292 18.8574 87.4596 20.252 87.2975 21.1043C87.1357 21.9565 86.7626 23.1609 86.4691 23.7808L85.9351 24.9077L86.7077 25.5456L87.4804 26.1832L88.1087 25.4047C88.4543 24.9765 88.9842 23.8202 89.2866 22.8355C89.5889 21.8506 89.8361 20.8048 89.8361 20.5112C89.8361 20.1058 90.0362 19.9773 90.6676 19.9773H91.499V21.7886C91.499 23.0587 91.369 23.7318 91.0639 24.0419C90.8247 24.2854 90.3258 24.5615 89.9553 24.6561C89.585 24.7505 89.2824 24.9728 89.283 25.1495C89.2835 25.3264 89.531 25.8834 89.8331 26.3869C90.1352 26.8906 90.5526 27.3025 90.7607 27.3025C90.9688 27.3025 91.5256 27.1656 91.9979 26.9982C92.5937 26.7869 93.0308 26.3285 93.4246 25.5013C93.8555 24.5967 94.0363 23.4813 94.174 20.8755L94.3555 17.4417H92.214C90.3242 17.4417 90.0836 17.3839 90.1654 16.9486C90.2421 16.5384 90.6185 16.4418 92.4028 16.3733L94.5476 16.291V15.2844V14.2777L95.2532 14.7477C95.6412 15.006 96.1858 15.1444 96.4638 15.0545C96.7415 14.9649 97.1915 14.6412 97.464 14.3352C97.8991 13.8467 98.3242 13.7791 100.965 13.7791H103.97V12.5112V11.2434H101.638C100.355 11.2434 99.2637 11.1482 99.2127 11.0321C99.162 10.916 98.6485 10.5991 98.0718 10.3278C97.495 10.0564 96.9338 9.83894 96.8246 9.8443C96.7154 9.84965 96.2163 10.769 95.7155 11.8869ZM114.225 11.3696V12.6225L112.77 12.7079L111.315 12.793V14.3425V15.8921L112.787 15.9777C114.205 16.0606 114.256 16.0916 114.172 16.823C114.089 17.5546 114.017 17.5856 112.216 17.6659L110.345 17.749V19.2859V20.8225H112.423H114.502V23.2474C114.502 25.343 114.442 25.6493 114.063 25.5013C113.822 25.4072 113.591 25.3303 113.55 25.3303C113.509 25.3303 113.533 24.7097 113.605 23.9512C113.716 22.7814 113.657 22.5482 113.218 22.4166C112.933 22.3312 112.233 22.1771 111.661 22.074L110.622 21.8866V22.8941C110.622 23.4483 110.373 25.2058 110.068 26.7996C109.764 28.3934 109.515 29.8353 109.514 30.0041C109.514 30.1731 109.856 30.4859 110.276 30.6994C110.695 30.9133 111.128 31.1333 111.239 31.1885C111.35 31.244 111.709 30.7273 112.037 30.0404L112.634 28.7918L113.804 29.4567C114.448 29.8224 115.928 30.3698 117.094 30.6727C118.259 30.9755 120.678 31.3542 122.469 31.5139C124.261 31.6737 126.8 31.8058 128.112 31.8075C129.425 31.8089 131.074 31.73 131.778 31.6323C132.617 31.5153 133.098 31.2973 133.178 30.9984C133.245 30.7476 133.378 30.0672 133.475 29.486L133.65 28.4295H130.312H126.973V27.1918C126.973 26.3516 127.107 25.902 127.389 25.7918C127.634 25.6966 127.805 25.274 127.805 24.7669C127.805 24.2597 127.634 23.8371 127.389 23.7419C127.041 23.6061 126.973 22.7595 126.973 18.5385C126.973 14.2453 127.035 13.4973 127.389 13.4973C127.703 13.4973 127.805 13.153 127.805 12.0886V10.6799H124.341H120.876V12.0886C120.876 12.8634 121.001 13.4973 121.153 13.4973C121.329 13.4973 121.431 15.4695 121.431 18.8503C121.431 23.579 121.379 24.2034 120.985 24.2034C120.693 24.2034 120.598 24.3566 120.708 24.6491C120.801 24.8942 120.876 25.4746 120.876 25.9392V26.7835L122.955 26.6908L125.035 26.5982L125.034 27.3729C125.033 27.9888 124.906 28.1474 124.41 28.146C124.067 28.1452 123.038 28.0204 122.123 27.8688C121.209 27.7169 119.806 27.4552 119.006 27.2867C117.65 27.0016 117.551 26.9244 117.551 26.1555C117.551 25.3532 117.589 25.3303 118.936 25.3303H120.322V23.7808V22.2312H118.936C117.643 22.2312 117.551 22.1842 117.551 21.5269C117.551 20.8608 117.634 20.8225 119.075 20.8225H120.599V19.287V17.7516L119.006 17.667C117.497 17.587 117.407 17.5411 117.324 16.8077C117.238 16.0445 117.26 16.033 118.779 16.033H120.322V14.3425V12.6521H118.798H117.273V11.3843V10.1165H115.749H114.225V11.3696ZM128.082 13.4776C128.082 14.6885 128.159 14.8784 128.685 14.9567C129.286 15.0466 129.286 15.0489 128.582 15.8777L127.877 16.7086L128.642 19.007C129.062 20.2712 129.538 21.5567 129.7 21.8638C129.94 22.3205 129.818 22.6873 129.028 23.8799C128.109 25.2675 128.078 25.3943 128.376 26.5224L128.69 27.7071L129.965 26.3359L131.239 24.9649L131.67 25.629C131.907 25.9944 132.41 26.6683 132.788 27.1267L133.475 27.9604L133.811 26.7793C134.13 25.6611 134.102 25.523 133.282 24.1828L132.417 22.7671L132.924 20.7769C133.204 19.6823 133.507 17.6284 133.598 16.2124C133.689 14.7967 133.724 13.2894 133.676 12.8634L133.588 12.0886H130.835H128.082V13.4776ZM125.033 14.4834C125.033 15.3912 124.967 15.4695 124.202 15.4695C123.436 15.4695 123.371 15.3912 123.371 14.4834C123.371 13.5756 123.436 13.4973 124.202 13.4973C124.967 13.4973 125.033 13.5756 125.033 14.4834ZM131.364 15.7309C131.417 16.1073 131.374 17.1044 131.271 17.9465C131.167 18.7889 130.985 19.3685 130.866 19.2346C130.746 19.1008 130.383 18.1742 130.058 17.1757C129.733 16.1772 129.468 15.25 129.468 15.1151C129.468 14.9804 129.873 14.91 130.368 14.9587C131.081 15.0283 131.289 15.19 131.364 15.7309ZM70.4361 16.0628C69.2929 16.3474 67.204 16.7379 65.7939 16.9306L63.2303 17.2811V23.7222V30.1633L64.0404 30.9868C64.5864 31.5415 65.1512 31.821 65.7726 31.8427C66.2798 31.8605 66.9441 31.8568 67.2489 31.834C67.5538 31.8115 68.0568 31.7379 68.3669 31.6706C68.7499 31.5875 69.026 31.1857 69.2275 30.4177C69.3907 29.7959 69.4594 29.2209 69.3799 29.14C69.3003 29.0591 68.6948 28.9929 68.0341 28.9929H66.8332V24.244V19.4952L68.8774 19.338C70.0018 19.2515 71.6854 18.963 72.6189 18.6968C73.5523 18.4306 74.3141 18.0708 74.3119 17.8975C74.3097 17.7242 73.9042 17.1241 73.4112 16.564L72.5147 15.5456L70.4361 16.0628ZM95.379 16.8782V18.0051H97.4576C98.6008 18.0051 99.5362 18.1164 99.5362 18.2525C99.5362 18.3883 99.3491 18.6574 99.1205 18.8503C98.8918 19.0433 98.7047 19.3758 98.7047 19.5891C98.7047 19.8756 98.2696 19.9773 97.0419 19.9773H95.379V21.386V22.7947H97.199C98.9556 22.7947 99.0129 22.8169 98.8378 23.4286C98.7383 23.7774 98.4254 24.2671 98.1427 24.517C97.86 24.7669 97.115 25.0548 96.487 25.1568C95.4696 25.3222 95.3646 25.4106 95.5229 25.9704C95.6204 26.3156 95.7559 26.8041 95.8244 27.0557C95.8939 27.3124 96.3457 27.5786 96.8534 27.6623C97.3514 27.7446 98.2976 27.7116 98.9561 27.589C99.6271 27.4642 100.451 27.0642 100.83 26.6787C101.327 26.1733 101.549 25.5681 101.669 24.393L101.831 22.7947H103.178H104.525V21.386V19.9773H103.278C102.592 19.9773 102.03 19.9294 102.03 19.8705C102.03 19.8119 102.467 19.027 103 18.1263C103.534 17.2256 103.97 16.3229 103.97 16.12C103.97 15.8321 103.03 15.7512 99.6747 15.7512H95.379V16.8782ZM82.8089 17.3701C80.431 17.4617 80.3595 17.4839 80.5186 18.0868C80.6089 18.4294 80.6846 19.1929 80.6865 19.784C80.6904 20.8259 80.7178 20.8558 81.5911 20.7701C82.3707 20.6935 82.4891 20.7667 82.4721 21.3156C82.4611 21.6644 82.43 23.1483 82.4029 24.6133L82.3533 27.2769L81.3749 27.4637C80.5327 27.6242 80.4224 27.7339 80.5831 28.2511C80.6857 28.5816 80.9251 29.2958 81.1155 29.8382C81.3281 30.4442 81.6064 30.7789 81.838 30.7068C82.0451 30.642 83.0877 30.536 84.1547 30.4712C85.628 30.3816 86.8616 30.5414 89.2819 31.1347C92.0525 31.814 93.1663 31.9309 97.804 32.0301L103.139 32.1439L103.142 31.4841C103.144 31.1212 103.222 30.3489 103.317 29.7677L103.489 28.7112L99.5032 28.7013C97.214 28.6957 94.5739 28.5143 93.3004 28.2748C92.081 28.0457 89.8505 27.6457 88.3437 27.3859L85.6042 26.9137L85.8001 22.0368C85.9597 18.0671 85.9281 17.1706 85.6297 17.218C85.4282 17.2498 84.1589 17.3183 82.8089 17.3701ZM124.982 18.9208C125.058 19.5899 124.972 19.6956 124.35 19.6956C123.954 19.6956 123.558 19.5054 123.471 19.273C123.383 19.0405 123.386 18.6512 123.478 18.408C123.578 18.1426 123.895 18.0018 124.27 18.0558C124.718 18.1204 124.92 18.3655 124.982 18.9208ZM68.4041 20.3264C67.0887 20.9014 67.0685 20.9296 67.2506 21.9168C67.3526 22.4698 67.7353 23.8845 68.1009 25.0607C68.4758 26.2677 69.2482 27.8854 69.8738 28.7732C70.4835 29.6387 71.5017 30.7352 72.1364 31.2097L73.2907 32.0726L74.3577 31.2133C74.9444 30.7408 75.4247 30.2878 75.4247 30.2064C75.4247 30.1252 74.7684 29.3916 73.9663 28.5762C73.1646 27.7609 72.3414 26.7771 72.1377 26.39C71.7841 25.7183 71.8459 25.6084 73.4891 23.9839C74.4361 23.0477 75.1331 22.1535 75.0378 21.9968C74.9424 21.8402 74.2992 21.4925 73.608 21.2243L72.3514 20.7363L71.4307 21.6432L70.5103 22.5504L70.3385 21.8976C70.2437 21.5387 70.1647 20.8963 70.1628 20.4703C70.1606 20.0444 70.0655 19.7057 69.9511 19.7184C69.8366 19.7308 69.1407 20.0046 68.4041 20.3264ZM125.033 23.0764C125.033 23.8278 124.941 23.9216 124.202 23.9216C123.463 23.9216 123.371 23.8278 123.371 23.0764C123.371 22.325 123.463 22.2312 124.202 22.2312C124.941 22.2312 125.033 22.325 125.033 23.0764ZM78.0397 37.1171V43.8521H77.2249V37.1171H78.0397ZM53.5468 43.8521H52.6059V37.7975C52.3861 37.7449 52.1662 37.7187 51.9463 37.7187L50.6368 38.0243L50.5786 37.3242H55.5741L55.5256 38.0243L54.2064 37.7187C53.9866 37.7187 53.7667 37.7449 53.5468 37.7975V43.8521ZM57.306 43.8521H56.4912V39.395H57.0538L57.2769 40.2233C57.4063 39.9932 57.61 39.7763 57.888 39.5725C58.1726 39.3687 58.4636 39.2438 58.761 39.1978L58.858 39.8782C58.6188 39.8782 58.3472 39.9538 58.0432 40.105C57.7458 40.2562 57.5 40.4238 57.306 40.6079V43.8521ZM62.8871 41.7912V42.8069C62.8871 42.8857 62.7674 43.0139 62.5281 43.1914C62.2889 43.3689 62.0625 43.4774 61.8491 43.5168C61.6875 43.4577 61.5549 43.3558 61.4514 43.2111C61.348 43.0599 61.2962 42.8825 61.2962 42.6787C61.2962 42.4749 61.445 42.2842 61.7424 42.1067C62.0399 41.9292 62.4214 41.8241 62.8871 41.7912ZM64.1869 43.6056C63.8506 43.3623 63.6824 43.0074 63.6824 42.5406V40.8643C63.6824 40.6999 63.6792 40.5684 63.6727 40.4698C63.6663 40.3712 63.6372 40.2365 63.5854 40.0655C63.5337 39.8946 63.4594 39.7598 63.3624 39.6612C63.2718 39.5626 63.1263 39.4739 62.9258 39.395C62.7318 39.3161 62.4893 39.2767 62.1983 39.2767C61.9073 39.2767 61.6002 39.3358 61.2768 39.4542C60.96 39.5725 60.7369 39.6842 60.6075 39.7894L60.6948 40.0359C61.1798 39.8782 61.6002 39.7993 61.9558 39.7993C62.5766 39.7993 62.8871 40.0721 62.8871 40.6177V41.5447C62.3244 41.5907 61.8103 41.7024 61.3447 41.8799C61.0731 41.9785 60.8533 42.1199 60.6851 42.3039C60.5235 42.488 60.4426 42.7214 60.4426 43.0041C60.4426 43.2802 60.5429 43.5103 60.7433 43.6943C60.9503 43.8784 61.196 43.9704 61.4805 43.9704C61.9138 43.9704 62.3859 43.7338 62.8967 43.2604L63.6824 43.9803L64.1869 43.6056ZM67.7403 43.9803H67.5948L65.6936 39.395H66.5472L67.8858 42.8463L69.1565 39.395H69.5251L67.7403 43.9803ZM72.2706 42.9646C71.9602 42.6491 71.805 42.1363 71.805 41.4263H74.8993C74.8993 40.7492 74.7409 40.2233 74.424 39.8486C74.1072 39.4673 73.7127 39.2767 73.2406 39.2767C72.6328 39.2767 72.1122 39.4969 71.6789 39.9373C71.2521 40.3778 71.0387 40.9662 71.0387 41.7024C71.0387 42.4387 71.2327 43.0008 71.6207 43.3886C72.0087 43.7765 72.5164 43.9704 73.1436 43.9704C73.6286 43.9704 74.1363 43.8159 74.6665 43.507V43.1618C74.285 43.3393 73.8679 43.4281 73.4152 43.4281C72.969 43.4281 72.5875 43.2736 72.2706 42.9646ZM72.1639 40.2825C72.3256 40.0327 72.5196 39.8519 72.7459 39.7401C73.0111 39.7401 73.2762 39.8223 73.5413 39.9866C73.6901 40.0787 73.8162 40.2233 73.9196 40.4205C74.0296 40.6177 74.0942 40.8544 74.1136 41.1305H71.8438C71.8955 40.8084 72.0023 40.5257 72.1639 40.2825ZM85.6482 43.8521H86.5891V37.7975C86.8089 37.7449 87.0288 37.7187 87.2487 37.7187L88.5679 38.0243L88.6164 37.3242H83.6209L83.6791 38.0243L84.9886 37.7187C85.2084 37.7187 85.4283 37.7449 85.6482 37.7975V43.8521ZM92.9247 39.2964C93.2222 39.2964 93.4873 39.4081 93.7201 39.6317C93.9529 39.8552 94.0693 40.2397 94.0693 40.7854V43.8521H93.2545V40.884C93.2545 40.5619 93.1963 40.3219 93.0799 40.1641C92.97 39.9998 92.7533 39.9176 92.43 39.9176C92.1131 39.9176 91.7801 40.0918 91.4309 40.4402V43.8521H90.6161V37.1171H91.4018V40.0261C91.9127 39.5396 92.4203 39.2964 92.9247 39.2964ZM97.4054 42.9646C97.095 42.6491 96.9398 42.1363 96.9398 41.4263H100.034C100.034 40.7492 99.8757 40.2233 99.5589 39.8486C99.242 39.4673 98.8475 39.2767 98.3754 39.2767C97.7676 39.2767 97.247 39.4969 96.8137 39.9373C96.3869 40.3778 96.1735 40.9662 96.1735 41.7024C96.1735 42.4387 96.3675 43.0008 96.7555 43.3886C97.1435 43.7765 97.6512 43.9704 98.2785 43.9704C98.7634 43.9704 99.2711 43.8159 99.8014 43.507V43.1618C99.4198 43.3393 99.0027 43.4281 98.5501 43.4281C98.1039 43.4281 97.7223 43.2736 97.4054 42.9646ZM97.2987 40.2825C97.4604 40.0327 97.6544 39.8519 97.8808 39.7401C98.1459 39.7401 98.411 39.8223 98.6762 39.9866C98.8249 40.0787 98.951 40.2233 99.0545 40.4205C99.1644 40.6177 99.2291 40.8544 99.2485 41.1305H96.9786C97.0304 40.8084 97.1371 40.5257 97.2987 40.2825ZM112.942 37.3242H113.427L111.022 44H110.867L109.383 39.9571L107.928 44H107.772L105.318 37.3242H106.376L108.083 42.6688L109.169 39.3753L108.413 37.3242H109.47L111.177 42.6688L112.942 37.3242ZM118.509 39.8683C118.141 39.4739 117.672 39.2767 117.103 39.2767C116.534 39.2767 116.02 39.4542 115.561 39.8092C115.321 39.9932 115.127 40.2529 114.979 40.5882C114.836 40.9234 114.765 41.3113 114.765 41.7517C114.765 42.442 114.95 42.9843 115.318 43.3788C115.693 43.7732 116.162 43.9704 116.725 43.9704C117.294 43.9704 117.808 43.7929 118.267 43.4379C118.506 43.2539 118.7 42.9942 118.849 42.6589C118.998 42.3237 119.072 41.9358 119.072 41.4954C119.072 40.8051 118.885 40.2627 118.509 39.8683ZM117.636 43.2999C117.436 43.5234 117.193 43.6352 116.909 43.6352C116.482 43.6352 116.165 43.4478 115.958 43.0731C115.751 42.6984 115.648 42.2546 115.648 41.7419C115.648 41.2225 115.742 40.7821 115.929 40.4205C116.123 40.0524 116.405 39.796 116.773 39.6514C117.271 39.6514 117.63 39.8354 117.85 40.2036C118.07 40.5651 118.18 41.0746 118.18 41.732C118.18 42.3828 117.999 42.9055 117.636 43.2999ZM121.953 43.8521H121.138V39.395H121.701L121.924 40.2233C122.053 39.9932 122.257 39.7763 122.535 39.5725C122.82 39.3687 123.111 39.2438 123.408 39.1978L123.505 39.8782C123.266 39.8782 122.994 39.9538 122.69 40.105C122.393 40.2562 122.147 40.4238 121.953 40.6079V43.8521ZM126.312 43.8521V37.1171H125.497V43.8521H126.312ZM132.32 42.5307C132.32 42.9843 132.485 43.3459 132.814 43.6154L132.32 43.9803L131.524 43.2604C131.266 43.5103 131.033 43.691 130.826 43.8028C130.619 43.9146 130.406 43.9704 130.186 43.9704C129.966 43.9704 129.772 43.9376 129.604 43.8718C129.436 43.8061 129.258 43.6976 129.07 43.5464C128.889 43.3886 128.74 43.1454 128.624 42.8167C128.514 42.4814 128.459 42.0509 128.459 41.5249C128.459 40.999 128.611 40.4961 128.915 40.0162C129.225 39.5298 129.649 39.2865 130.186 39.2865C130.587 39.2865 131.023 39.4377 131.495 39.7401V37.1171H132.32V42.5307ZM131.495 42.8562V40.105C131.152 39.8749 130.839 39.7598 130.554 39.7598C130.179 39.7598 129.879 39.9406 129.652 40.3022C129.426 40.6572 129.313 41.1042 129.313 41.6433C129.313 42.1823 129.394 42.6162 129.555 42.9449C129.723 43.267 129.93 43.461 130.176 43.5267C130.402 43.507 130.622 43.4511 130.836 43.3591C131.055 43.267 131.22 43.175 131.33 43.083C131.44 42.9843 131.495 42.9087 131.495 42.8562Z" fill="#181818"/>
<path fill-rule="evenodd" clip-rule="evenodd" d="M25.6397 7.67585C25.861 6.90781 26.3984 5.54163 26.8342 4.63993L27.6269 3L27.7906 6.56774C27.8912 8.75671 28.1205 10.6814 28.3843 11.549C28.6207 12.3265 29.0415 13.4254 29.3193 13.9909C29.5972 14.5563 30.502 16.0444 31.3301 17.2974C32.1582 18.5508 33.0731 20.1123 33.3631 20.7675C33.6533 21.423 34.0825 22.8845 34.3172 24.0155L34.7437 26.0718L34.7645 24.6581C34.7758 23.8805 34.6174 22.4347 34.4125 21.4451C34.2073 20.4557 34.0395 19.6219 34.0395 19.5926C34.0395 19.563 34.7361 19.8758 35.5874 20.2874C36.4386 20.6986 38.1843 21.2798 39.4669 21.5785C40.9388 21.9211 42.1996 22.3954 42.8859 22.8639C43.4837 23.2724 44.2836 24.0098 44.6636 24.5031L45.3544 25.3999L43.9092 26.1921C43.1143 26.6281 41.2725 27.8781 39.8162 28.97C38.3599 30.0621 35.7005 32.175 33.9065 33.6654C32.1125 35.1557 30.0788 36.7396 29.3872 37.185C28.6957 37.6307 27.2457 38.407 26.1651 38.9103C25.0845 39.4136 22.9344 40.1675 21.387 40.586C19.8397 41.0042 17.4019 41.4666 15.9695 41.6131C14.5371 41.7599 12.432 41.8799 11.2913 41.8799C10.1506 41.8799 8.49338 41.8018 7.60869 41.7064L6 41.5326L8.0118 41.1882C9.1183 40.9985 10.9264 40.6065 12.0299 40.3166C13.1334 40.0269 14.8758 39.4324 15.9021 38.9956C16.9281 38.5589 18.5957 37.6359 19.6071 36.9444C20.6188 36.2527 22.0074 35.0436 22.6929 34.2576C23.3785 33.4713 24.2785 32.1755 24.6932 31.3777C25.1079 30.5801 25.6455 29.1756 25.8882 28.2567C26.1988 27.0817 26.3225 25.7086 26.3056 23.6299C26.2926 22.0041 26.0471 18.8811 25.7607 16.6898C25.4743 14.4985 25.2394 11.888 25.2389 10.8889C25.2384 9.8895 25.4187 8.44364 25.6397 7.67585ZM40.7036 24.206C40.7036 24.7028 40.3096 25.1056 39.8235 25.1056C39.3374 25.1056 38.9433 24.7028 38.9433 24.206C38.9433 23.7091 39.3374 23.3063 39.8235 23.3063C40.3096 23.3063 40.7036 23.7091 40.7036 24.206Z" fill="#0F4BB4"/>
<path d="M39.8235 25.1056C40.3096 25.1056 40.7036 24.7028 40.7036 24.206C40.7036 23.7091 40.3096 23.3063 39.8235 23.3063C39.3374 23.3063 38.9433 23.7091 38.9433 24.206C38.9433 24.7028 39.3374 25.1056 39.8235 25.1056Z" fill="white"/>
</svg>
