<svg width="40" height="39" viewBox="0 0 40 39" fill="none" xmlns="http://www.w3.org/2000/svg">
<path fill-rule="evenodd" clip-rule="evenodd" d="M19.6397 4.67585C19.861 3.90781 20.3984 2.54163 20.8342 1.63993L21.6269 0L21.7906 3.56774C21.8912 5.75671 22.1205 7.68144 22.3843 8.54896C22.6207 9.32651 23.0415 10.4254 23.3193 10.9909C23.5972 11.5563 24.502 13.0444 25.3301 14.2974C26.1582 15.5508 27.0731 17.1123 27.3631 17.7675C27.6533 18.423 28.0825 19.8845 28.3172 21.0155L28.7437 23.0718L28.7645 21.6581C28.7758 20.8805 28.6174 19.4347 28.4125 18.4451C28.2073 17.4557 28.0395 16.6219 28.0395 16.5926C28.0395 16.563 28.7361 16.8758 29.5874 17.2874C30.4386 17.6986 32.1843 18.2798 33.4669 18.5785C34.9388 18.9211 36.1996 19.3954 36.8859 19.8639C37.4837 20.2724 38.2836 21.0098 38.6636 21.5031L39.3544 22.3999L37.9092 23.1921C37.1143 23.6281 35.2725 24.8781 33.8162 25.97C32.3599 27.0621 29.7005 29.175 27.9065 30.6654C26.1125 32.1557 24.0788 33.7396 23.3872 34.185C22.6957 34.6307 21.2457 35.407 20.1651 35.9103C19.0845 36.4136 16.9344 37.1675 15.387 37.586C13.8397 38.0042 11.4019 38.4666 9.9695 38.6131C8.53709 38.7599 6.43199 38.8799 5.2913 38.8799C4.1506 38.8799 2.49338 38.8018 1.60869 38.7064L0 38.5326L2.0118 38.1882C3.1183 37.9985 4.92641 37.6065 6.02988 37.3166C7.13336 37.0269 8.87583 36.4324 9.9021 35.9956C10.9281 35.5589 12.5957 34.6359 13.6071 33.9444C14.6188 33.2527 16.0074 32.0436 16.6929 31.2576C17.3785 30.4713 18.2785 29.1755 18.6932 28.3777C19.1079 27.5801 19.6455 26.1756 19.8882 25.2567C20.1988 24.0817 20.3225 22.7086 20.3056 20.6299C20.2926 19.0041 20.0471 15.8811 19.7607 13.6898C19.4743 11.4985 19.2394 8.888 19.2389 7.88888C19.2384 6.8895 19.4187 5.44364 19.6397 4.67585ZM34.7036 21.206C34.7036 21.7028 34.3096 22.1056 33.8235 22.1056C33.3374 22.1056 32.9433 21.7028 32.9433 21.206C32.9433 20.7091 33.3374 20.3063 33.8235 20.3063C34.3096 20.3063 34.7036 20.7091 34.7036 21.206Z" fill="#0F4BB4"/>
<path d="M33.8235 22.1056C34.3096 22.1056 34.7036 21.7028 34.7036 21.206C34.7036 20.7091 34.3096 20.3063 33.8235 20.3063C33.3374 20.3063 32.9433 20.7091 32.9433 21.206C32.9433 21.7028 33.3374 22.1056 33.8235 22.1056Z" fill="white"/>
</svg>
